# xmcd CD database file
#
# Track frame offsets:
#	150
#	13210
#	25402
#	38370
#	53665
#	67850
#	81750
#	94750
#	108127
#	122035
#	137280
#	151997
#	164247
#	177807
#
# Disc length: 2538 seconds
#
# Revision: 1
# Processed by: cddbd v1.5.2PL0 Copyright (c) Steve Scherf et al.
# Submitted via: CDex 1.51
#
DISCID=a509e80e
DTITLE=Muddy Waters - The Best Of Muddy Waters
DYEAR=1994
DGENRE=Blues
TTITLE0=I Just Want To Make Love To You
TTITLE1=Long Distance Call
TTITLE2=Louisiana Blues
TTITLE3=Honey Bee
TTITLE4=Rollin' Stone
TTITLE5=I'm Ready
TTITLE6=Hoochie Coochie Man
TTITLE7=She Moves Me
TTITLE8=I Want You To Love Me
TTITLE9=Standing Around Crying
TTITLE10=Still A Fool
TTITLE11=I Can't Be Satisfied
TTITLE12=Rollin' Stone (Alternate)
TTITLE13=Hoochie Coochie Man (Alternate)
EXTD=YEAR: 1994
EXTT0=
EXTT1=
EXTT2=
EXTT3=
EXTT4=
EXTT5=
EXTT6=
EXTT7=
EXTT8=
EXTT9=
EXTT10=
EXTT11=
EXTT12=
EXTT13=
PLAYORDER=
